<mxfile host="app.diagrams.net" modified="2024-07-15T11:13:01.459Z" agent="Mozilla/5.0 (Windows NT 10.0; Win64; x64) AppleWebKit/537.36 (KHTML, like Gecko) Chrome/126.0.0.0 Safari/537.36" etag="8oJEwVyGkNH1EI9bjDVS" version="24.6.5" type="github">
  <diagram name="Page-1" id="eeUbUDbcZIme84CjpNeB">
    <mxGraphModel dx="1050" dy="530" grid="1" gridSize="10" guides="1" tooltips="1" connect="1" arrows="1" fold="1" page="1" pageScale="1" pageWidth="827" pageHeight="1169" math="0" shadow="0">
      <root>
        <mxCell id="0" />
        <mxCell id="1" parent="0" />
        <mxCell id="vAfi4zploweHk0ciZkWM-10" value="" style="edgeStyle=orthogonalEdgeStyle;rounded=0;orthogonalLoop=1;jettySize=auto;html=1;" parent="1" source="vAfi4zploweHk0ciZkWM-1" target="vAfi4zploweHk0ciZkWM-2" edge="1">
          <mxGeometry relative="1" as="geometry" />
        </mxCell>
        <mxCell id="vAfi4zploweHk0ciZkWM-1" value="เริ่ม" style="html=1;dashed=0;whiteSpace=wrap;shape=mxgraph.dfd.start" parent="1" vertex="1">
          <mxGeometry x="374" y="50" width="80" height="30" as="geometry" />
        </mxCell>
        <mxCell id="vAfi4zploweHk0ciZkWM-11" value="" style="edgeStyle=orthogonalEdgeStyle;rounded=0;orthogonalLoop=1;jettySize=auto;html=1;" parent="1" source="vAfi4zploweHk0ciZkWM-2" target="vAfi4zploweHk0ciZkWM-4" edge="1">
          <mxGeometry relative="1" as="geometry" />
        </mxCell>
        <mxCell id="vAfi4zploweHk0ciZkWM-2" value="ผู้ยืมเขียนใบคำร้องขอยืม&amp;nbsp;&lt;br&gt;&lt;span style=&quot;background-color: initial;&quot;&gt;พร้อมหลักฐาน&lt;/span&gt;" style="rounded=0;whiteSpace=wrap;html=1;" parent="1" vertex="1">
          <mxGeometry x="332" y="120" width="164" height="60" as="geometry" />
        </mxCell>
        <mxCell id="vAfi4zploweHk0ciZkWM-3" value="ขั้นตอนการขอยืมอุปกรณ์จาก ศูนย์" style="text;html=1;align=center;verticalAlign=middle;whiteSpace=wrap;rounded=0;" parent="1" vertex="1">
          <mxGeometry x="90" y="60" width="160" height="30" as="geometry" />
        </mxCell>
        <mxCell id="vAfi4zploweHk0ciZkWM-25" value="" style="edgeStyle=orthogonalEdgeStyle;rounded=0;orthogonalLoop=1;jettySize=auto;html=1;" parent="1" source="vAfi4zploweHk0ciZkWM-4" target="vAfi4zploweHk0ciZkWM-22" edge="1">
          <mxGeometry relative="1" as="geometry" />
        </mxCell>
        <mxCell id="vAfi4zploweHk0ciZkWM-4" value="เจ้าหน้าที่ลงทะเบียนยืม&lt;div&gt;(บันทึกลงสมุด)&lt;/div&gt;" style="rounded=0;whiteSpace=wrap;html=1;" parent="1" vertex="1">
          <mxGeometry x="332" y="220" width="164" height="60" as="geometry" />
        </mxCell>
        <mxCell id="vAfi4zploweHk0ciZkWM-7" value="จบการทำงาน" style="html=1;dashed=0;whiteSpace=wrap;shape=mxgraph.dfd.start" parent="1" vertex="1">
          <mxGeometry x="373" y="710" width="80" height="30" as="geometry" />
        </mxCell>
        <mxCell id="vAfi4zploweHk0ciZkWM-24" value="" style="edgeStyle=orthogonalEdgeStyle;rounded=0;orthogonalLoop=1;jettySize=auto;html=1;" parent="1" source="vAfi4zploweHk0ciZkWM-22" target="vAfi4zploweHk0ciZkWM-23" edge="1">
          <mxGeometry relative="1" as="geometry" />
        </mxCell>
        <mxCell id="vAfi4zploweHk0ciZkWM-29" value="" style="edgeStyle=orthogonalEdgeStyle;rounded=0;orthogonalLoop=1;jettySize=auto;html=1;" parent="1" source="vAfi4zploweHk0ciZkWM-22" target="vAfi4zploweHk0ciZkWM-28" edge="1">
          <mxGeometry relative="1" as="geometry" />
        </mxCell>
        <mxCell id="vAfi4zploweHk0ciZkWM-22" value="เจ้าหน้าที่ตรวจประเมิน&lt;div&gt;ผู้ป่วยว่าเหมาะสมต่อการยืมหรือไม่&lt;/div&gt;" style="rhombus;whiteSpace=wrap;html=1;" parent="1" vertex="1">
          <mxGeometry x="264" y="330" width="300" height="80" as="geometry" />
        </mxCell>
        <mxCell id="vAfi4zploweHk0ciZkWM-23" value="เจ้าหน้าที่แนะนำวิธีการฟื้นฟูทางกายภาพบำบัดที่เหมาะสมให้ผู้ป่วยกลับไปฝึกที่บ้าน แล้วติดตามประเมินซ้ำ" style="rounded=0;whiteSpace=wrap;html=1;" parent="1" vertex="1">
          <mxGeometry x="610" y="340" width="190" height="60" as="geometry" />
        </mxCell>
        <mxCell id="vAfi4zploweHk0ciZkWM-26" value="ไม่เหมาะสม" style="text;html=1;align=center;verticalAlign=middle;whiteSpace=wrap;rounded=0;" parent="1" vertex="1">
          <mxGeometry x="520" y="340" width="80" height="30" as="geometry" />
        </mxCell>
        <mxCell id="vAfi4zploweHk0ciZkWM-33" value="" style="edgeStyle=orthogonalEdgeStyle;rounded=0;orthogonalLoop=1;jettySize=auto;html=1;" parent="1" source="vAfi4zploweHk0ciZkWM-28" target="vAfi4zploweHk0ciZkWM-32" edge="1">
          <mxGeometry relative="1" as="geometry" />
        </mxCell>
        <mxCell id="vAfi4zploweHk0ciZkWM-35" value="" style="edgeStyle=orthogonalEdgeStyle;rounded=0;orthogonalLoop=1;jettySize=auto;html=1;" parent="1" source="vAfi4zploweHk0ciZkWM-28" target="vAfi4zploweHk0ciZkWM-34" edge="1">
          <mxGeometry relative="1" as="geometry" />
        </mxCell>
        <mxCell id="vAfi4zploweHk0ciZkWM-28" value="เจ้าหน้าที่ตรวจสอบอุปกรณ์ที่ต้องการ&lt;br&gt;ว่าพร้อมใช้งานหรือไม่ พร้อมเซ็นอนุมัติการยืม&lt;span style=&quot;text-wrap: nowrap; color: rgba(0, 0, 0, 0); font-family: monospace; font-size: 0px; text-align: start;&quot;&gt;%3CmxGraphModel%3E%3Croot%3E%3CmxCell%20id%3D%220%22%2F%3E%3CmxCell%20id%3D%221%22%20parent%3D%220%22%2F%3E%3CmxCell%20id%3D%222%22%20value%3D%22%E0%B9%80%E0%B8%88%E0%B9%89%E0%B8%B2%E0%B8%AB%E0%B8%99%E0%B9%89%E0%B8%B2%E0%B8%97%E0%B8%B5%E0%B9%88%E0%B8%95%E0%B8%A3%E0%B8%A7%E0%B8%88%E0%B8%9B%E0%B8%A3%E0%B8%B0%E0%B9%80%E0%B8%A1%E0%B8%B4%E0%B8%99%26lt%3Bdiv%26gt%3B%E0%B8%9C%E0%B8%B9%E0%B9%89%E0%B8%9B%E0%B9%88%E0%B8%A7%E0%B8%A2%E0%B8%A7%E0%B9%88%E0%B8%B2%E0%B9%80%E0%B8%AB%E0%B8%A1%E0%B8%B2%E0%B8%B0%E0%B8%AA%E0%B8%A1%E0%B8%95%E0%B9%88%E0%B8%AD%E0%B8%81%E0%B8%B2%E0%B8%A3%E0%B8%A2%E0%B8%B7%E0%B8%A1%E0%B8%AB%E0%B8%A3%E0%B8%B7%E0%B8%AD%E0%B9%84%E0%B8%A1%E0%B9%88%26lt%3B%2Fdiv%26gt%3B%22%20style%3D%22rhombus%3BwhiteSpace%3Dwrap%3Bhtml%3D1%3B%22%20vertex%3D%221%22%20parent%3D%221%22%3E%3CmxGeometry%20x%3D%22298.5%22%20y%3D%22330%22%20width%3D%22231%22%20height%3D%2280%22%20as%3D%22geometry%22%2F%3E%3C%2FmxCell%3E%3C%2Froot%3E%3C%2FmxGraphMo&lt;/span&gt;" style="rhombus;whiteSpace=wrap;html=1;" parent="1" vertex="1">
          <mxGeometry x="263" y="450" width="300" height="80" as="geometry" />
        </mxCell>
        <mxCell id="vAfi4zploweHk0ciZkWM-30" value="เหมาะสม" style="text;html=1;align=center;verticalAlign=middle;whiteSpace=wrap;rounded=0;" parent="1" vertex="1">
          <mxGeometry x="420" y="410" width="60" height="30" as="geometry" />
        </mxCell>
        <mxCell id="vAfi4zploweHk0ciZkWM-32" value="ขอเบอร์โทรศัพท์ติดต่อกลับเมื่อมีอุปกรณ์พร้อมใช้งาน" style="rounded=0;whiteSpace=wrap;html=1;" parent="1" vertex="1">
          <mxGeometry x="610" y="460" width="190" height="60" as="geometry" />
        </mxCell>
        <mxCell id="vAfi4zploweHk0ciZkWM-40" value="" style="edgeStyle=orthogonalEdgeStyle;rounded=0;orthogonalLoop=1;jettySize=auto;html=1;" parent="1" source="vAfi4zploweHk0ciZkWM-34" target="vAfi4zploweHk0ciZkWM-7" edge="1">
          <mxGeometry relative="1" as="geometry" />
        </mxCell>
        <mxCell id="vAfi4zploweHk0ciZkWM-34" value="ผู้ยืมนำอุปกรณ์&lt;br&gt;ไปใช้งานที่บ้าน" style="rounded=0;whiteSpace=wrap;html=1;" parent="1" vertex="1">
          <mxGeometry x="331" y="585" width="164" height="60" as="geometry" />
        </mxCell>
        <mxCell id="vAfi4zploweHk0ciZkWM-36" value="ไม่มีอุปกรณ์" style="text;html=1;align=center;verticalAlign=middle;whiteSpace=wrap;rounded=0;" parent="1" vertex="1">
          <mxGeometry x="540" y="460" width="60" height="30" as="geometry" />
        </mxCell>
        <mxCell id="vAfi4zploweHk0ciZkWM-37" value="มีอุปกรณ์" style="text;html=1;align=center;verticalAlign=middle;whiteSpace=wrap;rounded=0;" parent="1" vertex="1">
          <mxGeometry x="414" y="540" width="60" height="30" as="geometry" />
        </mxCell>
      </root>
    </mxGraphModel>
  </diagram>
</mxfile>
